<svg width="200" height="101" viewBox="0 0 200 101" fill="none" xmlns="http://www.w3.org/2000/svg">
<path d="M88.4287 100.305C85.5857 100.305 82.9586 100.125 80.5474 99.7654C78.1362 99.4056 75.905 98.8837 73.8536 98.2C71.8383 97.5162 70.0209 96.6885 68.4015 95.7168C66.818 94.7451 65.4145 93.6475 64.1909 92.4239C62.9673 91.2003 61.9417 89.8688 61.114 88.4293C60.3222 86.9538 59.7284 85.3883 59.3326 83.7329C58.9367 82.0774 58.7388 80.332 58.7388 78.4966C58.7388 75.5097 59.2246 72.8286 60.1963 70.4534C61.1679 68.0782 62.5355 66.0269 64.2989 64.2995C66.0983 62.572 68.2216 61.1325 70.6687 59.9809C73.1519 58.8293 75.887 57.9836 78.8739 57.4438C81.8609 56.868 85.0459 56.5801 88.4287 56.5801C94.4027 56.5801 99.477 57.2998 103.652 58.7393C107.826 60.1789 111.119 62.2482 113.53 64.9472C115.977 67.6463 117.507 70.9212 118.119 74.7719L95.1764 78.4966C95.1764 77.6689 94.9965 76.9672 94.6366 76.3914C94.2767 75.7796 93.7909 75.2937 93.1791 74.9339C92.5673 74.574 91.8475 74.3041 91.0198 74.1241C90.2281 73.9442 89.3644 73.8542 88.4287 73.8542C87.1331 73.8542 85.9815 74.0342 84.9739 74.394C83.9662 74.7179 83.1565 75.2218 82.5447 75.9055C81.9689 76.5533 81.681 77.381 81.681 78.3887C81.681 79.0005 81.789 79.5583 82.0049 80.0621C82.2208 80.5659 82.5267 81.0158 82.9226 81.4117C83.3184 81.7715 83.7863 82.0774 84.3261 82.3293C84.9019 82.5453 85.5317 82.7252 86.2155 82.8692C86.8992 82.9771 87.637 83.0311 88.4287 83.0311C90.3361 83.0311 91.9375 82.6532 93.2331 81.8975C94.5286 81.1058 95.1764 79.9721 95.1764 78.4966L118.119 80.8179C117.723 83.481 116.841 85.9821 115.474 88.3213C114.142 90.6605 112.271 92.7298 109.859 94.5292C107.484 96.3286 104.515 97.7321 100.952 98.7398C97.4257 99.7834 93.2511 100.305 88.4287 100.305Z" fill="white"/>
<path d="M151.429 58.1995H173.832C173.832 60.4668 173.832 62.734 173.832 65.0012C173.832 67.2685 173.832 69.5357 173.832 71.8029C173.832 74.0702 173.832 76.3554 173.832 78.6586C173.832 81.9695 173.832 85.2983 173.832 88.6452C173.832 91.9921 173.832 95.3389 173.832 98.6858H151.429C151.429 96.4905 151.429 94.2953 151.429 92.1C151.429 89.9048 151.429 87.7095 151.429 85.5143C151.429 85.4783 151.411 85.4603 151.375 85.4603C151.375 85.4243 151.357 85.4063 151.321 85.4063H143.926C143.89 85.4063 143.872 85.4243 143.872 85.4603C143.872 85.4603 143.872 85.4783 143.872 85.5143C143.872 87.7095 143.872 89.9048 143.872 92.1C143.872 94.2953 143.872 96.4905 143.872 98.6858H121.469C121.469 96.5265 121.469 94.3673 121.469 92.208C121.469 90.0487 121.469 87.8895 121.469 85.7302C121.469 83.5709 121.469 81.4117 121.469 79.2524C121.469 77.0931 121.469 74.9339 121.469 72.7746C121.469 70.6153 121.469 68.4561 121.469 66.2968C121.469 64.9293 121.469 63.5797 121.469 62.2482C121.469 60.8806 121.469 59.5311 121.469 58.1995H143.872C143.872 59.9269 143.872 61.6724 143.872 63.4358C143.872 65.1992 143.872 66.9626 143.872 68.726C143.872 70.4534 143.872 72.1988 143.872 73.9622C143.872 73.9982 143.872 74.0342 143.872 74.0701C143.872 74.0701 143.89 74.0701 143.926 74.0701H151.321C151.357 74.0701 151.375 74.0701 151.375 74.0701C151.411 74.0342 151.429 73.9982 151.429 73.9622C151.429 71.3351 151.429 68.708 151.429 66.0809C151.429 63.4537 151.429 60.8266 151.429 58.1995Z" fill="white"/>
<path d="M177.598 98.6858C177.598 96.0947 177.598 93.5036 177.598 90.9124C177.598 88.3213 177.598 85.7302 177.598 83.1391C177.598 80.548 177.598 77.9568 177.598 75.3657C177.598 72.7746 177.598 70.1835 177.598 67.5923C177.598 66.0089 177.598 64.4434 177.598 62.8959C177.598 61.3125 177.598 59.747 177.598 58.1995H200C200 61.6903 200 65.1812 200 68.672C200 72.1268 200 75.5996 200 79.0905C200 81.2497 200 83.427 200 85.6222C200 87.7815 200 89.9588 200 92.154C200 94.3133 200 96.4905 200 98.6858H177.598Z" fill="white"/>
<path d="M177.752 3.10227C183.046 2.30147 187.642 1.2516 190.194 0L195.136 6.6582C193.088 7.15933 191.591 7.55965 190.691 7.75854C188.344 8.36046 185.796 8.86159 183.148 9.26206V16.2197H195.089C196.139 16.2197 198.785 16.0209 199.933 15.9201V23.6814C198.436 23.5806 196.687 23.4826 195.237 23.4826H182.901C181.955 31.4426 178.357 38.8007 170.115 43.8601L162.37 38.6523C169.765 35.2925 173.61 30.1407 174.81 23.4826H161.713C160.216 23.4826 158.266 23.5806 156.916 23.6814V15.9201C158.416 16.0712 160.065 16.2197 161.666 16.2197H175.155V10.2616C170.508 10.6143 165.61 10.8216 162.461 10.8635L160.565 3.90308C164.413 3.9534 172.207 3.9534 177.752 3.10227Z" fill="white"/>
<path d="M20.8362 59.614C26.1305 58.8132 30.7262 57.7633 33.2778 56.5117L38.2199 63.1699C36.1715 63.671 34.6748 64.0714 33.7753 64.2703C31.4275 64.8722 28.8802 65.3733 26.2316 65.7738V72.7314H38.1729C39.2235 72.7314 41.8692 72.5326 43.0167 72.4318V80.1931C41.5199 80.0923 39.7708 79.9944 38.3211 79.9944H25.9851C25.0385 87.9543 21.4406 95.3124 13.1985 100.372L5.45389 95.164C12.8493 91.8042 16.6938 86.6524 17.894 79.9944H4.79674C3.29999 79.9944 1.34993 80.0923 0 80.1931V72.4318C1.4996 72.583 3.14888 72.7314 4.7497 72.7314H18.239V66.7733C13.5919 67.126 8.69399 67.3333 5.54511 67.3752L3.64922 60.4148C7.49659 60.4651 15.2911 60.4651 20.8362 59.614Z" fill="white"/>
<path d="M29.6899 43.7926C26.8469 43.7926 24.2198 43.6126 21.8086 43.2527C19.3974 42.8929 17.1662 42.3711 15.1149 41.6873C13.0996 41.0035 11.2822 40.1758 9.66272 39.2041C8.07926 38.2325 6.67574 37.1348 5.45216 35.9112C4.22857 34.6876 3.20291 33.3561 2.37519 31.9166C1.58346 30.4411 0.98966 28.8756 0.593794 27.2202C0.197928 25.5647 0 23.8193 0 21.984C0 18.997 0.485833 16.3159 1.4575 13.9407C2.42917 11.5655 3.79671 9.51418 5.56011 7.78677C7.3595 6.05935 9.48278 4.61984 11.93 3.46823C14.4131 2.31662 17.1482 1.47091 20.1352 0.931092C23.1222 0.355288 26.3071 0.0673828 29.6899 0.0673828C35.6639 0.0673828 40.7382 0.787136 44.9128 2.22665C49.0874 3.66616 52.3802 5.73546 54.7914 8.43454C57.2386 11.1336 58.7681 14.4085 59.3799 18.2592L36.4376 21.984C36.4376 21.1562 36.2577 20.4545 35.8978 19.8787C35.538 19.2669 35.0521 18.781 34.4403 18.4212C33.8285 18.0613 33.1088 17.7914 32.2811 17.6114C31.4893 17.4315 30.6256 17.3415 29.6899 17.3415C28.3944 17.3415 27.2428 17.5215 26.2351 17.8813C25.2275 18.2052 24.4177 18.7091 23.8059 19.3928C23.2301 20.0406 22.9422 20.8683 22.9422 21.876C22.9422 22.4878 23.0502 23.0456 23.2661 23.5494C23.482 24.0532 23.7879 24.5031 24.1838 24.899C24.5797 25.2588 25.0475 25.5647 25.5873 25.8167C26.1631 26.0326 26.7929 26.2125 27.4767 26.3565C28.1605 26.4644 28.8982 26.5184 29.6899 26.5184C31.5973 26.5184 33.1987 26.1405 34.4943 25.3848C35.7899 24.5931 36.4376 23.4595 36.4376 21.984L59.3799 24.3052C58.984 26.9683 58.1023 29.4694 56.7348 31.8086C55.4032 34.1478 53.5319 36.2171 51.1207 38.0165C48.7455 39.8159 45.7765 41.2194 42.2137 42.2271C38.6869 43.2707 34.5123 43.7926 29.6899 43.7926Z" fill="white"/>
<path d="M92.6904 1.68683H115.093C115.093 3.95406 115.093 6.2213 115.093 8.48853C115.093 10.7558 115.093 13.023 115.093 15.2902C115.093 17.5575 115.093 19.8427 115.093 22.1459C115.093 25.4568 115.093 28.7856 115.093 32.1325C115.093 35.4794 115.093 38.8262 115.093 42.1731H92.6904C92.6904 39.9779 92.6904 37.7826 92.6904 35.5873C92.6904 33.3921 92.6904 31.1968 92.6904 29.0016C92.6904 28.9656 92.6724 28.9476 92.6364 28.9476C92.6364 28.9116 92.6184 28.8936 92.5824 28.8936H85.1869C85.1509 28.8936 85.1329 28.9116 85.1329 28.9476C85.1329 28.9476 85.1329 28.9656 85.1329 29.0016C85.1329 31.1968 85.1329 33.3921 85.1329 35.5873C85.1329 37.7826 85.1329 39.9779 85.1329 42.1731H62.7305C62.7305 40.0138 62.7305 37.8546 62.7305 35.6953C62.7305 33.536 62.7305 31.3768 62.7305 29.2175C62.7305 27.0582 62.7305 24.899 62.7305 22.7397C62.7305 20.5804 62.7305 18.4212 62.7305 16.2619C62.7305 14.1026 62.7305 11.9434 62.7305 9.78409C62.7305 8.41656 62.7305 7.06701 62.7305 5.73546C62.7305 4.36792 62.7305 3.01838 62.7305 1.68683H85.1329C85.1329 3.41425 85.1329 5.15966 85.1329 6.92306C85.1329 8.68646 85.1329 10.4499 85.1329 12.2133C85.1329 13.9407 85.1329 15.6861 85.1329 17.4495C85.1329 17.4855 85.1329 17.5215 85.1329 17.5575C85.1329 17.5575 85.1509 17.5575 85.1869 17.5575H92.5824C92.6184 17.5575 92.6364 17.5575 92.6364 17.5575C92.6724 17.5215 92.6904 17.4855 92.6904 17.4495C92.6904 14.8224 92.6904 12.1953 92.6904 9.56816C92.6904 6.94105 92.6904 4.31394 92.6904 1.68683Z" fill="white"/>
<path d="M118.859 42.1731C118.859 39.582 118.859 36.9909 118.859 34.3997C118.859 31.8086 118.859 29.2175 118.859 26.6264C118.859 24.0353 118.859 21.4441 118.859 18.853C118.859 16.2619 118.859 13.6708 118.859 11.0796C118.859 9.49619 118.859 7.93072 118.859 6.38324C118.859 4.79978 118.859 3.23431 118.859 1.68683H141.261C141.261 5.17765 141.261 8.66847 141.261 12.1593C141.261 15.6141 141.261 19.0869 141.261 22.5778C141.261 24.737 141.261 26.9143 141.261 29.1095C141.261 31.2688 141.261 33.4461 141.261 35.6413C141.261 37.8006 141.261 39.9779 141.261 42.1731H118.859Z" fill="white"/>
</svg>
